<svg width="254.26008795879474" height="310.4573059082031" viewBox="0 0 269.89391479817607 329.5465613259715" class="looka-1j8o68f"><defs id="SvgjsDefs1016"><linearGradient id="SvgjsLinearGradient1023"><stop id="SvgjsStop1024" stop-color="#00ddff" offset="0"></stop><stop id="SvgjsStop1025" stop-color="#ff00d4" offset="1"></stop></linearGradient></defs><g id="SvgjsG1017" featurekey="symbolFeature-0" transform="matrix(2.875290285491932,0,0,2.875290285491932,43.24941668692564,-5.814562454084331)" fill="url(#SvgjsLinearGradient1023)"><path xmlns="http://www.w3.org/2000/svg" d="M21.383,26.224a1.133,1.133,0,0,0-.094.074,1.039,1.039,0,0,0-.086.112.9.9,0,0,0-.07.093,1.054,1.054,0,0,0-.06.143.99.99,0,0,0-.038.095A.969.969,0,0,0,21,27V37a1,1,0,0,0,.485.857l10,6,.011.005.011.008a.973.973,0,0,0,.164.067c.023.008.045.021.069.028a.983.983,0,0,0,.52,0c.024-.007.046-.02.069-.028a.973.973,0,0,0,.164-.067l.011-.008.011-.005,10-6A1,1,0,0,0,43,37V27a.982.982,0,0,0-.035-.26.774.774,0,0,0-.037-.09,1.057,1.057,0,0,0-.061-.147,1,1,0,0,0-.069-.092.944.944,0,0,0-.087-.113,1.118,1.118,0,0,0-.093-.074,1.146,1.146,0,0,0-.1-.081l-10-6a1,1,0,0,0-1.03,0l-10,6A.884.884,0,0,0,21.383,26.224ZM41,36.434l-8,4.8V33.566l8-4.8ZM40.056,27,32,31.834,28.944,30,37,25.166ZM32,22.166,35.056,24,27,28.834,23.944,27Zm-9,6.6,8,4.8v7.667l-8-4.8Z"></path><path xmlns="http://www.w3.org/2000/svg" d="M33,6l1.2,1.6,1.6-1.2-3-4a1.036,1.036,0,0,0-1.6,0l-3,4,1.6,1.2L31,6v8h2Z"></path><path xmlns="http://www.w3.org/2000/svg" d="M33,58V50H31v8l-1.2-1.6-1.6,1.2,3,4a1,1,0,0,0,1.6,0l3-4-1.6-1.2Z"></path><rect xmlns="http://www.w3.org/2000/svg" x="31" y="16" width="2" height="2"></rect><rect xmlns="http://www.w3.org/2000/svg" x="31" y="46" width="2" height="2"></rect><path xmlns="http://www.w3.org/2000/svg" d="M14,33V31H6l1.6-1.2L6.4,28.2l-4,3a1,1,0,0,0,0,1.6l4,3,1.2-1.6L6,33Z"></path><path xmlns="http://www.w3.org/2000/svg" d="M57.6,28.2l-1.2,1.6L58,31H50v2h8l-1.6,1.2,1.2,1.6,4-3a1,1,0,0,0,0-1.6Z"></path><rect xmlns="http://www.w3.org/2000/svg" x="16" y="31" width="2" height="2"></rect><rect xmlns="http://www.w3.org/2000/svg" x="46" y="31" width="2" height="2"></rect><path xmlns="http://www.w3.org/2000/svg" d="M19.979,18.565l-5.656-5.656,1.979.282.283-1.98L11.636,10.5A1,1,0,0,0,10.5,11.636l.707,4.949,1.98-.283-.282-1.979,5.656,5.656Z"></path><path xmlns="http://www.w3.org/2000/svg" d="M50.809,47.7l.282,1.979-5.656-5.656-1.414,1.414,5.656,5.656L47.7,50.809l-.283,1.98,4.949.707a.978.978,0,0,0,.142.01,1,1,0,0,0,.99-1.142l-.707-4.949Z"></path><rect xmlns="http://www.w3.org/2000/svg" x="20.394" y="20.394" width="2" height="2" transform="translate(-8.862 21.394) rotate(-45)"></rect><rect xmlns="http://www.w3.org/2000/svg" x="41.607" y="41.607" width="2" height="2" transform="translate(-17.648 42.606) rotate(-45)"></rect><path xmlns="http://www.w3.org/2000/svg" d="M18.565,44.021l-5.656,5.656.282-1.979-1.98-.283L10.5,52.364a1,1,0,0,0,.99,1.142.978.978,0,0,0,.142-.01l4.949-.707-.283-1.98-1.979.282,5.656-5.656Z"></path><path xmlns="http://www.w3.org/2000/svg" d="M52.789,16.585l.707-4.949a1,1,0,0,0-.283-.849.99.99,0,0,0-.849-.283l-4.949.707.283,1.98,1.979-.282-5.656,5.656,1.414,1.414,5.656-5.656L50.809,16.3Z"></path><rect xmlns="http://www.w3.org/2000/svg" x="20.394" y="41.607" width="2" height="2" transform="translate(-23.861 27.607) rotate(-45)"></rect><rect xmlns="http://www.w3.org/2000/svg" x="41.607" y="20.394" width="2" height="2" transform="translate(-2.648 36.393) rotate(-45)"></rect></g><g id="SvgjsG1018" featurekey="nameFeature-0" transform="matrix(1.808239785091156,0,0,1.808239785091156,-6.60495823004754,173.91904725649115)" fill="#000000"><path d="M15.391 11.777000000000001 c5.5273 0 8.9648 4.1016 8.9648 9.1211 c0 5.1367 -3.4375 8.9844 -8.9648 8.9844 l-5.8789 0 l0 10.117 l-5.8594 0 l0 -28.223 l11.738 0 z M14.414 24.98 c2.9297 0 4.2969 -1.6211 4.2969 -4.1602 c0 -2.4414 -1.3672 -4.1406 -4.2969 -4.1406 l-4.9023 0 l0 8.3008 l4.9023 0 z M33.9258 23.105 c1.0156 -1.7773 3.6523 -3.418 6.5625 -3.418 l0 5.0195 c-4.2578 0 -6.2891 1.25 -6.2891 5.5078 l0 9.7852 l-5.6641 0 l0 -20.078 l5.3906 0 l0 3.1836 z M53.14490625 40.39063 c-6.3867 0 -10.996 -3.8867 -10.996 -10.449 c0 -6.5234 4.5703 -10.41 10.996 -10.41 c6.4648 0 11.016 3.8867 11.016 10.41 c0 6.5625 -4.5703 10.449 -11.016 10.449 z M53.08590625 35.918 c3.2617 0 5.4883 -2.3828 5.4883 -5.9766 s-2.2266 -5.9766 -5.4883 -5.9766 c-3.1445 0 -5.3516 2.3828 -5.3516 5.9766 s2.207 5.9766 5.3516 5.9766 z M82.5776875 10 l5.625 0 l0 30 l-5.332 0 l-0.13672 -2.6172 c-1.1523 1.9727 -3.5742 3.0859 -6.3086 3.0859 c-5.293 0 -9.668 -3.9063 -9.668 -10.469 s4.3945 -10.469 9.668 -10.469 c2.6367 0 4.9609 0.99609 6.1523 2.8125 l0 -12.344 z M77.7146875 35.8008 c2.9883 0 5.3125 -2.2852 5.3125 -5.8008 s-2.3438 -5.8203 -5.3125 -5.8203 c-2.9883 0 -5.332 2.207 -5.332 5.8203 c0 3.5938 2.3438 5.8008 5.332 5.8008 z M107.32428125 19.922 l5.625 0 l0 20.078 l-5.332 0 l-0.13672 -2.4219 c-1.4063 1.7773 -3.6328 2.8125 -6.3867 2.8125 c-4.8242 0 -7.4805 -2.5195 -7.4805 -6.9531 l0 -13.516 l5.6445 0 l0 12.305 c0 2.6563 1.6602 3.6328 3.6133 3.6328 c2.3242 0 4.4336 -1.1719 4.4531 -4.8633 l0 -11.074 z M127.851375 40.37109 c-6.3086 0 -10.762 -4.1992 -10.762 -10.43 c0 -6.25 4.4531 -10.41 10.762 -10.41 c5.0781 0 8.8867 2.6367 9.8633 7.3828 l-5.1953 0.56641 c-0.625 -2.4023 -2.3633 -3.5156 -4.7266 -3.5156 c-3.0273 0 -5.0781 2.3828 -5.0781 5.9766 c0 3.5742 2.0508 5.9766 5.0781 5.9766 c2.3633 0 4.1016 -1.1328 4.7266 -3.5156 l5.1953 0.56641 c-0.97656 4.7461 -4.8828 7.4023 -9.8633 7.4023 z M149.19959375 40 c-3.9063 0 -6.1328 -2.2656 -6.1328 -6.2695 l0 -9.4922 l-3.9453 0 l0 -4.3164 l1.2695 0 c2.1289 0 3.3008 -0.82031 3.3008 -3.8281 l0 -2.6563 l5.0781 0 l0 6.4844 l4.1406 0 l0 4.3164 l-4.1406 0 l0 8.8867 c0 1.7969 0.87891 2.5977 2.3242 2.5977 l1.8164 0 l0 4.2773 l-3.7109 0 z"></path></g><g id="SvgjsG1019" featurekey="nameFeature-1" transform="matrix(2.4979370847433273,0,0,2.4979370847433273,-4.291456940707403,228.55691927158477)" fill="#000000"><path d="M16.152 40.39063 c-8.3008 0 -14.434 -5.6641 -14.434 -14.512 c0 -8.8672 6.1328 -14.492 14.434 -14.492 c8.2813 0 14.414 5.625 14.414 14.492 c0 8.8477 -6.1328 14.512 -14.414 14.512 z M16.152 35.0195 c4.8633 0 8.5938 -3.418 8.5938 -9.1406 c0 -5.7031 -3.7305 -9.1016 -8.5938 -9.1016 s-8.5938 3.3984 -8.5938 9.1016 c0 5.7227 3.7305 9.1406 8.5938 9.1406 z M47.0706875 19.531 c4.8242 0 7.4805 2.5 7.4805 6.9531 l0 13.516 l-5.6445 0 l0 -12.305 c0 -2.6758 -1.6602 -3.6523 -3.5938 -3.6523 c-2.3242 0 -4.4336 1.1719 -4.4727 4.8828 l0 11.074 l-5.625 0 l0 -20.078 l5.625 0 l0 2.2266 c1.4063 -1.6602 3.5742 -2.6172 6.2305 -2.6172 z M78.88684375 29.668 l-0.058594 1.3477 l-14.883 0 c0.23438 3.3398 2.4609 4.9414 5.1367 4.9414 c2.0117 0 3.5742 -0.9375 4.3359 -2.7148 l5.1563 0.76172 c-1.3281 4.0625 -4.9414 6.3867 -9.4531 6.3867 c-6.4844 0 -10.723 -3.8281 -10.723 -10.43 s4.3555 -10.469 10.547 -10.469 c5.6836 0 9.9219 3.1445 9.9414 10.176 z M68.98484375 23.477 c-2.5586 0 -4.3359 1.1914 -4.8828 3.8672 l9.2188 0 c-0.29297 -2.5586 -2.0313 -3.8672 -4.3359 -3.8672 z M80.82031625 40 l10.996 -14.727 l-10.684 -13.496 l7.1289 0 l7.0313 9.2578 l7.0313 -9.2578 l7.1289 0 l-10.684 13.496 l10.996 14.727 l-7.4609 0 l-7.0117 -9.9805 l-7.0117 9.9805 l-7.4609 0 z"></path></g></svg>